<?xml version="1.0" encoding="utf-8"?>
<!-- Generator: Adobe Illustrator 16.0.0, SVG Export Plug-In . SVG Version: 6.00 Build 0)  -->
<!DOCTYPE svg PUBLIC "-//W3C//DTD SVG 1.1//EN" "http://www.w3.org/Graphics/SVG/1.1/DTD/svg11.dtd">
<svg version="1.1" id="Layer_1" xmlns="http://www.w3.org/2000/svg" xmlns:xlink="http://www.w3.org/1999/xlink" x="0px" y="0px"
	 width="200px" height="87.675px" viewBox="0 0 200 87.675" enable-background="new 0 0 200 87.675" xml:space="preserve">
<g>
	<path fill="#FBBA42" d="M89.955,74.558h33.815v13.117H68.675h-6.098l39.815-57.577H68.48V16.932h54.949h6.001L89.955,74.558z"/>
	<path fill="#FBBA42" d="M126.45,57.625h33.815v13.118H105.17h-6.575l6.575-8.988l33.719-48.589h-33.913V0h54.95h6.04L126.45,57.625
		z"/>
	<path fill="#F24C27" d="M68.48,30.098H58.464V56.12c0,2.215,0.4,3.753,1.198,4.628c0.798,0.87,2.377,1.304,4.737,1.304
		c1.813,0,3.336-0.109,4.571-0.324v13.114c-3.304,1.061-6.75,1.587-10.345,1.587c-6.313,0-10.984-1.498-14.017-4.494
		c-3.028-2.996-4.547-7.507-4.547-13.531V30.098H28.252v45.73H9.907v-45.73H0V16.923h68.48V30.098z"/>
	<path fill="#56B9D0" d="M194.607,17.904v35.418c0.097,3.628,1.214,5.441,3.352,5.441c0.356,0,0.616-0.048,0.777-0.146L200,70.476
		c-1.652,0.681-3.676,1.021-6.073,1.021c-6.478,0-11.062-2.741-13.749-8.215c-3.077,5.441-7.337,8.167-12.778,8.167
		c-6.316,0-11.304-2.345-14.964-7.025c-3.66-4.68-5.49-11.393-5.49-20.138c0-8.324,1.813-14.965,5.458-19.92
		c3.644-4.956,8.68-7.434,15.094-7.434c4.891,0,8.777,2.332,11.66,6.996l1.117-6.024H194.607z M163.416,45.305
		c0,4.632,0.663,8.041,2.008,10.228c1.344,2.187,3.385,3.279,6.105,3.279c2.979,0,5.198-1.021,6.656-3.061V33.16
		c-1.458-2.397-3.645-3.596-6.56-3.596C166.152,29.564,163.416,34.811,163.416,45.305z"/>
</g>
</svg>
